<?xml version="1.0" standalone="no"?><!DOCTYPE svg PUBLIC "-//W3C//DTD SVG 1.1//EN" "http://www.w3.org/Graphics/SVG/1.1/DTD/svg11.dtd"><svg t="1595559183187" class="icon" viewBox="0 0 1034 1024" version="1.1" xmlns="http://www.w3.org/2000/svg" p-id="17254" xmlns:xlink="http://www.w3.org/1999/xlink" width="403.90625" height="400"><defs><style type="text/css"></style></defs><path d="M1021.015837 966.671764C924.470022 827.456473 870.161688 666.690446 774.047868 527.690152a11.636857 11.636857 0 0 0-4.740942-4.525944 97.838799 97.838799 0 0 0-48.273407-5.818929 28.661648 28.661648 0 0 0-25.21369 24.352701 46.117434 46.117434 0 0 0 7.542907 37.49754c5.602931 7.542907-31.032619 36.204556-24.999693 43.100471 2.586968 3.23296 5.387934 6.249923 7.758905 9.482884s1.939976 6.679918-2.585969 9.481883a26.722672 26.722672 0 0 0-9.481883 9.912879 51.721365 51.721365 0 0 0-4.956939 16.378799c-3.23296 21.549735-5.602931 45.255444-8.835892 67.883166a165.937963 165.937963 0 0 1-6.464921 28.877646 24.567698 24.567698 0 0 1-21.549735 18.964767c-8.836892 0-11.42286 3.23196-10.775868 12.283849a95.468828 95.468828 0 0 1-7.111912 39.221519c-5.171937 14.007828-11.205862 27.799659-15.946805 43.100471s-7.758905 25.429688-10.775867 38.359529a15.300812 15.300812 0 0 0 6.46592 16.163801 258.604826 258.604826 0 0 1 19.609759 17.024791 96.545815 96.545815 0 0 1 12.930842 14.869818c4.309947 6.249923 2.154974 10.989865-5.602931 12.283849a71.547122 71.547122 0 0 1-14.223826 0l-100.639764-3.017963-197.402577-5.386934-281.663543-8.189899a9.912878 9.912878 0 0 0-6.679918 1.939976 107.751677 107.751677 0 0 0-16.379799 18.964767 28.877646 28.877646 0 0 0 25.429688 43.100471h981.190956a22.627722 22.627722 0 0 0 21.550735-14.869817l2.154974-4.95694v-8.619894a193.953619 193.953619 0 0 0-13.360836-28.877645zM27.972027 926.803253a49.135397 49.135397 0 0 0 48.919399-19.394762 121.759505 121.759505 0 0 0 14.65382-28.231653c22.628722-58.185286 69.824143-222.184273 104.519717-273.905638a261.621788 261.621788 0 0 1 26.722672-32.325603 14.869817 14.869817 0 0 1 23.489712 0 172.403884 172.403884 0 0 1 12.714844 15.085815 24.998693 24.998693 0 0 1 5.387934 17.024791V897.279616c0 17.88678 8.189899 29.092643 25.644685 29.954632a437.042635 437.042635 0 0 0 54.954325-1.939976 63.143225 63.143225 0 0 0 18.963767-5.170937 36.851548 36.851548 0 0 0 24.136704-32.5416 376.055384 376.055384 0 0 0 2.154974-37.49754c0-58.186286-2.154974-224.124249-3.447958-282.310535a19.395762 19.395762 0 0 0-2.154973-7.542907c-8.404897-17.88678-18.317775-43.100471-26.93867-60.772254 0-1.507981-21.549735-38.790524-21.549735-40.945497l2.585968 1.508981c74.349087 52.15136 144.388228 167.230947 190.074667 213.133384a17.88678 17.88678 0 0 1 4.956939 7.32691c5.386934 11.205862 9.481884 44.82445 16.162802 55.169323a16.378799 16.378799 0 0 0 26.937669 3.878952 237.05509 237.05509 0 0 0 68.315161-94.390841 19.610759 19.610759 0 0 0-15.516809-26.291678 113.786603 113.786603 0 0 0-26.506675-4.740941c-32.972595-1.508981-73.918093-76.073066-91.588876-104.518717a599.317643 599.317643 0 0 1-38.791523-52.799352c-18.963767-21.549735-31.894608-115.294585-36.635551-144.17223-2.154974-13.145839-3.016963-26.507675-4.309947-39.868511a122.406497 122.406497 0 0 0-33.834584-79.521024 240.934042 240.934042 0 0 0 26.507674-3.879952 95.468828 95.468828 0 0 0 67.668169-114.216598 92.01987 92.01987 0 0 0-106.458693-73.702096 95.683825 95.683825 0 0 0-75.212076 104.30372 105.812701 105.812701 0 0 0 19.826756 49.997386 258.604826 258.604826 0 0 0-136.198328 3.662955 301.706296 301.706296 0 0 0-115.725579 59.47927 68.961153 68.961153 0 0 0-13.792831 15.51681 20.041754 20.041754 0 0 0 4.09495 28.230653 57.970288 57.970288 0 0 0 13.145838 8.835892c15.946804 7.542907 32.109606 14.65382 48.05741 21.549735a157.318069 157.318069 0 0 1 21.549736 11.637857 45.039447 45.039447 0 0 1 6.034926 19.61076 105.381706 105.381706 0 0 1-2.586968 21.549735 156.241082 156.241082 0 0 1-23.273715 54.308333c-29.30964 50.859376-56.462307 188.781683-76.719058 243.950006A2041.255943 2041.255943 0 0 0 0.170368 891.891682a31.894608 31.894608 0 0 0 27.799659 34.911571z m342.435796-636.599185a326.057998 326.057998 0 0 0 33.834585 104.518717c-13.360836-9.265886-32.972595-33.40259-46.333431-43.099471a4.309947 4.309947 0 0 1-1.292985-3.663955c4.525944-19.179765 9.912878-38.359529 13.791831-57.755291z m-213.348381-51.289371l76.503061-15.947804-30.816622 47.841413z" p-id="17255"></path></svg>