<?xml version="1.0" standalone="no"?><!DOCTYPE svg PUBLIC "-//W3C//DTD SVG 1.1//EN" "http://www.w3.org/Graphics/SVG/1.1/DTD/svg11.dtd"><svg t="1595559064036" class="icon" viewBox="0 0 1026 1024" version="1.1" xmlns="http://www.w3.org/2000/svg" p-id="16374" xmlns:xlink="http://www.w3.org/1999/xlink" width="400.78125" height="400"><defs><style type="text/css"></style></defs><path d="M513.131674 27.395296c267.543073 0 484.415725 216.936378 484.415725 484.604704a482.268841 482.268841 0 0 1-96.229631 289.943622c-88.525459 118.122575-229.556189 194.661082-388.186094 194.661082h-0.127451c-157.937717 0-298.397116-75.969373-386.988498-193.210781A483.064309 483.064309 0 0 1 28.652223 512c0-267.668326 216.936378-484.604704 484.479451-484.604704z m0 896.457065c227.284052 0 412.164395-184.944069 412.164395-412.228121 0-227.286249-184.882541-412.230318-412.164395-412.230317-227.286249 0-412.166592 184.944069-412.166592 412.230317-0.002197 227.284052 184.880343 412.22812 412.166592 412.228121zM241.549734 341.884155c12.494558 0 24.167279 6.499983 30.792515 17.164085 6.688961 10.664103 7.319622 23.9783 1.76673 35.273065-17.983725 36.470661-27.259056 76.665957-27.195331 117.302935 0 146.768206 119.445425 266.215828 266.218026 266.215829 146.770403 0 266.1543-119.447622 266.1543-266.215829a263.614077 263.614077 0 0 0-27.19533-117.302935c-8.710592-17.983725-1.263519-39.689888 16.65648-48.525734 17.983725-8.833648 39.689888-1.511828 48.64879 16.408171a336.056584 336.056584 0 0 1 34.644601 149.420498c0 186.899777-152.006867 338.968172-338.906644 338.968172-186.901974 0-338.908841-152.068395-338.908841-338.968172-0.127451-51.806489 11.672721-102.98012 34.642403-149.420498 6.117631-12.494558 18.79897-20.319588 32.682301-20.319587z m271.58194 278.899364c-53.131536 0-98.563296-38.301116-107.522198-90.738266-9.022627-52.371227 21.075502-103.606386 71.17679-121.27588V208.491674c0-20.064687 16.280721-36.345408 36.347605-36.345408 20.064687 0 36.34321 16.280721 36.343211 36.345408v200.277699c50.101288 17.669494 80.140086 68.904652 71.176789 121.27588-8.963296 52.43715-54.395056 90.738266-107.522197 90.738266z m0-145.506884c-20.066884 0-36.347605 16.280721-36.347605 36.347605 0 20.062489 16.280721 36.345408 36.347605 36.345408 20.064687 0 36.34321-16.280721 36.34321-36.345408 0-20.066884-16.278524-36.347605-36.34321-36.347605z" p-id="16375" fill="#000000"></path></svg>
