<?xml version="1.0" standalone="no"?><!DOCTYPE svg PUBLIC "-//W3C//DTD SVG 1.1//EN" "http://www.w3.org/Graphics/SVG/1.1/DTD/svg11.dtd"><svg t="1595559049867" class="icon" viewBox="0 0 1024 1024" version="1.1" xmlns="http://www.w3.org/2000/svg" p-id="15996" xmlns:xlink="http://www.w3.org/1999/xlink" width="400" height="400"><defs><style type="text/css"></style></defs><path d="M825.856 483.328H392.704V311.296c0-75.264 60.928-136.192 136.192-136.192 75.264 0 136.192 60.928 136.192 136.192 0 25.6 20.992 46.592 46.592 46.592s46.592-20.992 46.592-46.592c0-126.464-102.912-229.888-229.888-229.888S299.008 184.832 299.008 311.296v172.032H231.936c-25.6 0-46.592 20.992-46.592 46.592v364.032c0 25.6 20.992 46.592 46.592 46.592h593.92c25.6 0 46.592-20.992 46.592-46.592v-364.032c0-25.6-20.992-46.592-46.592-46.592zM567.296 706.56v87.552c0 20.992-16.896 37.888-37.888 37.888h-1.536c-20.992 0-37.888-16.896-37.888-37.888V706.56c-18.432-12.288-30.208-33.28-30.208-57.344 0-38.4 30.72-69.12 69.12-69.12s69.12 30.72 69.12 69.12c-0.512 23.552-12.288 44.544-30.72 57.344z" fill="#000000" p-id="15997"></path></svg>
