<?xml version="1.0" standalone="no"?><!DOCTYPE svg PUBLIC "-//W3C//DTD SVG 1.1//EN" "http://www.w3.org/Graphics/SVG/1.1/DTD/svg11.dtd"><svg t="1595558291773" class="icon" viewBox="0 0 1024 1024" version="1.1" xmlns="http://www.w3.org/2000/svg" p-id="9695" xmlns:xlink="http://www.w3.org/1999/xlink" width="400" height="400"><defs><style type="text/css"></style></defs><path d="M83.382857 619.154286A234.788571 234.788571 0 0 1 0 439.442286c0-125.366857 98.230857-227.474286 221.622857-235.885715A308.662857 308.662857 0 0 1 511.926857 0c158.354286 0 288.182857 118.272 305.005714 270.774857h1.974858c113.078857 0 204.8 91.136 204.8 202.971429a200.411429 200.411429 0 0 1-62.610286 145.993143h-877.714286v-0.585143z m178.322286 195.803428h416.914286c18.724571 0 33.572571 14.848 33.572571 33.645715 0 18.724571-14.848 33.572571-33.645714 33.572571H261.705143a33.353143 33.353143 0 0 1-33.572572-33.645714c0-18.724571 14.848-33.645714 33.645715-33.645715z m-113.737143-127.268571h436.224a33.938286 33.938286 0 1 1 1.974857 67.803428h-438.125714a33.938286 33.938286 0 0 1 0-67.876571z m681.837714 0a33.938286 33.938286 0 1 1 2.56 67.876571l-2.56-0.073143a33.938286 33.938286 0 0 1 0-67.876571z m-128.585143 0a33.938286 33.938286 0 1 1 2.56 67.876571l-2.56-0.073143a33.938286 33.938286 0 0 1 0-67.876571z m242.322286 127.268571c19.382857 0 34.304 14.848 34.304 33.645715 0 18.724571-14.921143 33.572571-33.645714 33.572571H943.542857a33.353143 33.353143 0 0 1-33.645714-33.645714c0-18.724571 14.921143-33.645714 33.645714-33.645715z m-118.930286 0c19.382857 0 34.304 14.848 34.304 33.645715 0 18.724571-14.921143 33.572571-33.645714 33.572571h-0.658286a33.353143 33.353143 0 0 1-33.572571-33.645714c0-18.724571 14.848-33.645714 33.645714-33.645715z m-675.986285 126.683429h416.914285c18.651429 0 33.572571 14.848 33.572572 33.645714 0 18.651429-14.921143 33.572571-33.645714 33.572572H148.626286a33.353143 33.353143 0 0 1-33.645715-33.645715c0-18.724571 14.921143-33.645714 33.645715-33.645714z m682.422857 0c19.456 0 34.304 14.848 34.304 33.645714 0 18.651429-14.848 33.572571-33.645714 33.572572h-0.585143a33.353143 33.353143 0 0 1-33.645715-33.645715c0-18.724571 14.921143-33.645714 33.645715-33.645714z m-118.857143 0c19.382857 0 34.230857 14.848 34.230857 33.645714 0 18.651429-14.848 33.572571-33.645714 33.572572h-0.585143a33.353143 33.353143 0 0 1-33.645714-33.645715c0-18.724571 14.921143-33.645714 33.645714-33.645714z" p-id="9696" fill="#000000"></path></svg>
