<?xml version="1.0" standalone="no"?><!DOCTYPE svg PUBLIC "-//W3C//DTD SVG 1.1//EN" "http://www.w3.org/Graphics/SVG/1.1/DTD/svg11.dtd"><svg t="1595558223341" class="icon" viewBox="0 0 1027 1024" version="1.1" xmlns="http://www.w3.org/2000/svg" p-id="8840" xmlns:xlink="http://www.w3.org/1999/xlink" width="401.171875" height="400"><defs><style type="text/css"></style></defs><path d="M295.5008 484.53632a27.93472 27.93472 0 0 0-32.9472 21.94944l-28.0064 139.94496a28.0064 28.0064 0 0 0 21.95456 32.95232c1.82272 0.36352 3.67616 0.5376 5.53472 0.53248a27.99616 27.99616 0 0 0 27.42784-22.49728l27.98592-139.93984a27.99104 27.99104 0 0 0-21.9392-32.9472c0 0.01024-0.00512 0.00512-0.01024 0.00512z m112 0a27.8784 27.8784 0 0 0-32.90112 21.71392l-0.04608 0.23552-28.0064 139.94496a28.0064 28.0064 0 0 0 21.95456 32.95232c1.82272 0.36352 3.67616 0.5376 5.53472 0.53248a27.99104 27.99104 0 0 0 27.42784-22.49728l27.99104-139.93984a27.99104 27.99104 0 0 0-21.9392-32.9472c-0.01024 0.01024-0.01024 0.00512-0.01536 0.00512z m112 0a27.9296 27.9296 0 0 0-32.9216 21.80608l-0.03072 0.14848-28.00128 139.94496a28.0064 28.0064 0 0 0 21.95456 32.95232c1.82272 0.36352 3.67616 0.5376 5.5296 0.53248a28.00128 28.00128 0 0 0 27.43296-22.49728l27.98592-139.93984a27.98592 27.98592 0 0 0-21.9392-32.9472h-0.01024z m439.72096 155.63776c-0.10752-0.24064-0.05632-0.53248-0.17408-0.76288l-83.9936-167.936a28.01664 28.01664 0 0 0-25.05216-15.46752h-150.64064l10.10176-50.4832a28.0064 28.0064 0 0 0-27.44832-33.4848H94.00832a27.99616 27.99616 0 0 0-27.4688 33.47968l84.01408 419.84a28.01152 28.01152 0 0 0 27.44832 22.5024h28.0064c0 61.85984 50.14016 112 112 112 61.85472 0 112-50.14016 112-112h224c0 61.85984 50.14016 112 111.99488 112 61.85984 0 112.00512-50.14016 112.00512-112h56.00768a27.97056 27.97056 0 0 0 27.98592-27.9552V651.9296a27.33056 27.33056 0 0 0-2.78016-11.75552z m-70.528-16.2304h-94.68928V511.98976h38.69696l55.99232 111.95392zM318.00832 903.8336c-30.90944-0.03072-55.95648-25.06752-56.00768-55.97696 0.07168-6.20032 1.18272-12.34432 3.29216-18.18112 0.05632-0.16384 0.1792-0.27136 0.23552-0.4352a56.13568 56.13568 0 0 1 34.37568-34.0992c0.8448-0.28672 1.70496-0.53248 2.56-0.80384a50.21184 50.21184 0 0 1 31.104 0.01536c0.8448 0.24576 1.68448 0.49664 2.5088 0.77824a56.18176 56.18176 0 0 1 34.39616 34.14016c0.07168 0.16896 0.19968 0.30208 0.27136 0.46592 2.09408 5.81632 3.19488 11.94496 3.26144 18.1248-0.0512 30.90432-25.09824 55.936-55.99744 55.97184z m96.63488-111.95392c-0.33792-0.57344-0.75264-1.0752-1.09056-1.6384a118.50752 118.50752 0 0 0-6.016-8.96512c-1.64864-2.21184-3.456-4.25984-5.24288-6.33856a113.60256 113.60256 0 0 0-10.45504-10.60864A114.64704 114.64704 0 0 0 383.88736 757.76a123.90912 123.90912 0 0 0-7.13216-4.79744 114.57024 114.57024 0 0 0-11.1872-6.07744c-2.1504-1.01888-4.26496-2.0736-6.5024-2.94912-5.12-2.0224-10.38848-3.65568-15.75936-4.8896-1.85344-0.44032-3.72736-0.8192-5.60128-1.152a98.5088 98.5088 0 0 0-39.42912 0c-1.87904 0.32768-3.70176 0.7168-5.55008 1.13664a110.01856 110.01856 0 0 0-15.95392 4.96128c-2.09408 0.83456-4.08576 1.8176-6.10816 2.78016a113.62816 113.62816 0 0 0-18.44736 10.91584c-2.89792 2.12992-5.64224 4.48-8.32512 6.88128a111.12448 111.12448 0 0 0-9.98912 10.1376c-1.88416 2.17088-3.75808 4.29568-5.46304 6.62016-2.1504 2.8672-4.10112 5.82656-5.98016 8.91392-0.33792 0.55808-0.768 1.0752-1.09056 1.63328h-20.4288L128.1536 428.01152h519.69024l-72.78592 363.85792H414.6432v0.01024z m351.35488 111.95392c-30.8992-0.03072-55.95136-25.06752-56.00256-55.97696a54.8352 54.8352 0 0 1 3.30752-18.18112 4.89984 4.89984 0 0 1 0.21504-0.4352 56.1408 56.1408 0 0 1 34.3808-34.0992c0.8448-0.28672 1.69984-0.53248 2.58048-0.80384a50.1504 50.1504 0 0 1 31.08352 0.01536c0.83456 0.24576 1.68448 0.49664 2.5088 0.77824a56.20224 56.20224 0 0 1 34.39616 34.14016c0.07168 0.16896 0.19456 0.30208 0.27136 0.46592a55.3984 55.3984 0 0 1 3.25632 18.1248c-0.04096 30.90432-25.088 55.936-55.99744 55.97184z m96.64-111.95392c-0.32256-0.57344-0.75264-1.0752-1.09056-1.6384a118.50752 118.50752 0 0 0-6.016-8.96512c-1.64864-2.21184-3.456-4.25984-5.24288-6.33856a116.01408 116.01408 0 0 0-10.43968-10.60864 115.08736 115.08736 0 0 0-7.97696-6.56896 116.29056 116.29056 0 0 0-7.12704-4.79744 114.57024 114.57024 0 0 0-11.1872-6.07744c-2.1504-1.01888-4.26496-2.0736-6.5024-2.94912a110.04416 110.04416 0 0 0-15.75936-4.8896c-1.85344-0.44032-3.73248-0.8192-5.61152-1.152a98.4576 98.4576 0 0 0-39.41888 0 109.75744 109.75744 0 0 0-21.504 6.09792c-2.09408 0.83456-4.08576 1.8176-6.10816 2.78016a113.55136 113.55136 0 0 0-18.44224 10.91584c-2.89792 2.12992-5.64224 4.48-8.32512 6.88128a110.464 110.464 0 0 0-9.98912 10.1376c-1.88416 2.17088-3.7632 4.29568-5.46304 6.62016a108.0832 108.0832 0 0 0-5.9648 8.91392c-0.3328 0.55808-0.78336 1.0752-1.11104 1.63328h-37.20704l55.99744-279.88992h49.8432v139.94496a27.98592 27.98592 0 0 0 27.9808 27.99104h140.02688v111.95392h-43.36128v0.00512zM121.97376 344.04352a27.93472 27.93472 0 0 0 21.53984-10.0608l120.38144-144.40448 62.3104 62.29504a28.04224 28.04224 0 0 0 41.66656-2.28864l92.44672-115.53792 201.88672 201.79456a27.99104 27.99104 0 1 0 40.1152-39.04c-0.17408-0.1792-0.34816-0.3584-0.53248-0.53248l-224-223.91296a27.15136 27.15136 0 0 0-21.34016-8.14592 28.04224 28.04224 0 0 0-20.32128 10.43968L343.68 190.18752 281.79968 128.3328a27.75552 27.75552 0 0 0-21.05856-8.17152 28.0576 28.0576 0 0 0-20.26496 10.02496l-139.98592 167.936a27.9808 27.9808 0 0 0 21.48352 45.92128z" p-id="8841" fill="#000000"></path><path d="M290.00192 316.05248m-28.16 0a28.16 28.16 0 1 0 56.32 0 28.16 28.16 0 1 0-56.32 0Z" p-id="8842" fill="#e6e6e6"></path><path d="M402.00192 316.05248m-28.16 0a28.16 28.16 0 1 0 56.32 0 28.16 28.16 0 1 0-56.32 0Z" p-id="8843" fill="#e6e6e6"></path><path d="M514.00192 316.05248m-28.16 0a28.16 28.16 0 1 0 56.32 0 28.16 28.16 0 1 0-56.32 0Z" p-id="8844" fill="#e6e6e6"></path><path d="M458.00448 232.0896m-28.16 0a28.16 28.16 0 1 0 56.32 0 28.16 28.16 0 1 0-56.32 0Z" p-id="8845" fill="#e6e6e6"></path></svg>
