<?xml version="1.0" standalone="no"?><!DOCTYPE svg PUBLIC "-//W3C//DTD SVG 1.1//EN" "http://www.w3.org/Graphics/SVG/1.1/DTD/svg11.dtd"><svg t="1595558252569" class="icon" viewBox="0 0 1024 1024" version="1.1" xmlns="http://www.w3.org/2000/svg" p-id="9231" xmlns:xlink="http://www.w3.org/1999/xlink" width="400" height="400"><defs><style type="text/css"></style></defs><path d="M448.26 319.9v295.59h204.75c5.05-11.54 11.53-21.63 19.46-31l-62.72 12.98-119.67-64.17V295.39l119.67-64.16 348.94 72.1v220.61l-129.05 25.95c12.98 6.49 24.51 14.42 34.61 24.52 10.81 11.54 20.18 24.51 26.67 38.93h58.4v67.05h-46.86c-2.88 30.28-16.58 57.67-37.49 78.58-23.79 23.79-56.23 38.21-92.28 38.21-36.05 0-68.49-14.42-92.28-38.21-20.91-20.19-34.61-48.3-37.49-78.58H383.38c-2.88 30.28-16.58 57.67-37.49 78.58-23.8 23.79-56.23 38.21-92.28 38.21-36.05 0-68.49-14.42-92.28-38.21-20.91-20.19-34.61-48.3-37.49-78.58H89.95c-64.16-182.4-7.93-306.4 190.33-360.47h167.98z m464.29 43.98l-2.89-13.7-273.96-59.84-77.86 38.93v39.65l354.71-5.04z m-17.31 259.54c0-0.72-0.72-1.44-0.72-2.16l0.72 2.16z m-77.13-1.44c-12.26-11.53-28.12-18.74-45.42-18.74-18.02 0-33.89 7.21-45.42 18.74-11.54 11.53-18.74 27.4-18.74 45.42s7.21 33.89 18.74 45.42c11.53 11.53 27.4 18.74 45.42 18.74 18.02 0 33.88-7.21 45.42-18.74 11.53-11.53 18.74-27.4 18.74-45.42s-7.21-33.89-18.74-45.42z m-519.09 0c-11.53-11.53-27.39-18.74-45.42-18.74s-33.88 7.21-45.42 18.74c-11.54 11.53-18.75 27.4-18.75 45.42s7.21 33.89 18.75 45.42c11.53 11.53 27.39 18.74 45.42 18.74 18.02 0 33.88-7.21 45.42-18.74 11.53-11.53 18.75-27.4 18.75-45.42s-7.21-33.89-18.75-45.42z m-9.37-234.31c-92.28 26.68-142.75 68.49-155 131.93h246.56V387.67h-91.56z m91.56 0" p-id="9232"></path></svg>