<?xml version="1.0" standalone="no"?><!DOCTYPE svg PUBLIC "-//W3C//DTD SVG 1.1//EN" "http://www.w3.org/Graphics/SVG/1.1/DTD/svg11.dtd"><svg t="1595558393135" class="icon" viewBox="0 0 1024 1024" version="1.1" xmlns="http://www.w3.org/2000/svg" p-id="13762" xmlns:xlink="http://www.w3.org/1999/xlink" width="400" height="400"><defs><style type="text/css"></style></defs><path d="M882.85 959.78H225.08c-27-27.44-54.17-54.17-80.43-82.31a39.14 39.14 0 0 1-10.08-24.15q-0.7-383.41-0.23-766.81c0-7.5 4.46-15 6.8-22.28H798.9c27 27.44 54.17 54.17 80.2 82.31 5.63 6.1 10.32 15.95 10.32 24.15q0.7 383.41 0.23 766.81c0 7.26-4.44 14.76-6.8 22.28z m-593.52-741v669.5h529.75V821c-26.73-3-27.2-3.52-27.2-30v-26.34c0-26.73 0.23-27.2 27.2-30.25V373.28c-27.2-3.75-27.2-3.75-27.2-31.89v-20.87c0-28.61 0-28.61 27.2-35.17v-66.6zM163.89 111.11c-1.17 6.8-1.64 8-1.64 9.15V845.8c0 4.46 0.7 10.08 3.28 12.9 15.95 17.35 32.36 34 50.65 53a61 61 0 0 0 2.11-9.15V177c0-4.22-0.94-9.61-3.75-12.66-15.71-17.11-31.9-33.53-50.65-53.23z m22.51-19.23c-0.7 1.17-1.41 2.58-2.11 3.75 14.07 13.6 28.37 26.73 41.74 41a34.38 34.38 0 0 0 27.44 11.49q284.92-0.35 569.83-0.23c4.92 0 9.61-0.7 19-1.17-16.65-16.18-31-28.84-43.85-42.91-8.21-8.91-16.65-12.19-28.84-12.19-184.08 0.47-368.16 0.23-552.25 0.23z m60.5 838.57H861v-109c-1.41-0.94-2.81-2.11-4.22-3-3 4-8.44 7.74-8.68 11.72-0.94 21.57-0.23 43.15-0.47 64.72 0 19.93-3 23-23.68 23H283.7c-20.4 0-23.68-3-23.68-23q0-340.9-0.23-682c0-16.41 6.33-23 22.75-23q271.9 0.35 543.8 0c16 0 21.81 6.57 21.57 22-0.7 24.86-0.23 50-0.23 78.79 6.57-4 13.37-6.1 13.37-8.21 0.7-35.17 0.47-70.58 0.47-105.52H246.66c0.23 251.15 0.23 501.59 0.23 753.45zM848.15 733c1.64 1.41 3.52 2.81 5.16 4.22 2.81-4 8.21-8 8.21-12 0.47-114.2 0.23-228.4 0.47-342.6 0-11.26-4.69-12.43-13.84-8.44z m13.13-415.77h-40.57V343h40.57z m-0.47 473.69v-25.79h-40.1v25.79z" p-id="13763" fill="#000000"></path><path d="M567.92 595.82c-44.32 0-88.41 0.23-132.73 0-20.4 0-25.79-8.68-16-26q66.13-119.95 133-239.42c10.55-19 21.81-18.76 32.6 0.7q66.83 119.59 133 239.42c9.15 16.41 3.75 25.33-15.24 25.56-44.82-0.02-89.84-0.26-134.63-0.26zM684 567.21L567.92 358.74c-39.4 71-77.15 138.82-115.84 208.47zM567.92 651.87h132.73c10.79 0 21.34 1.17 20.87 14.77C721 678.84 711.2 680 701.11 680H435.67c-10.79 0-21.34-1.17-20.87-14.77 0.47-12.19 10.32-13.37 20.64-13.37zM567.92 693.84h132.73c10.79 0 21.34 1.17 20.87 14.77-0.47 12.2-10.52 13.39-20.41 13.39H435.67c-10.79 0-21.34-1.17-20.87-14.77 0.47-12.19 10.32-13.37 20.64-13.37zM567.92 763.73H436.83c-10.32 0-21.81 0-22-13.37-0.47-14.77 11.72-14.77 22.75-14.77h261.89c10.32 0 21.81 0 22 13.37 0.52 14.77-11.68 14.53-22.48 14.53-43.84 0.24-87.46 0.24-131.07 0.24zM371.89 561.35a34.85 34.85 0 0 1-35.43 34.26h-0.68a34.85 34.85 0 0 1 2.55-69.61h0.27a35.17 35.17 0 0 1 33.29 35.35z" p-id="13764" fill="#000000"></path><path d="M554.55 512.81c-6.1-0.47-10.79-0.23-15-1.41-12.43-2.81-16.88-10.55-10.32-21.81a296.24 296.24 0 0 1 27.2-40.33c3.28-4 12.66-3 19.23-4.46 0.94 6.57 3.52 13.6 2.34 19.93-0.94 5.86-6.1 10.79-10.55 18.06 5.86 0.47 10.08 0.7 14.3 1.41 13.13 2.58 17.59 11.26 10.55 22.75a314.23 314.23 0 0 1-26.3 38.93c-3.52 4.22-12.66 3.75-19.23 5.63-0.94-7-3.75-14.54-2.58-21.34 0.98-5.63 6.15-10.79 10.36-17.36z" p-id="13765" fill="#000000"></path></svg>
