<?xml version="1.0" standalone="no"?><!DOCTYPE svg PUBLIC "-//W3C//DTD SVG 1.1//EN" "http://www.w3.org/Graphics/SVG/1.1/DTD/svg11.dtd"><svg t="1595558415627" class="icon" viewBox="0 0 1024 1024" version="1.1" xmlns="http://www.w3.org/2000/svg" p-id="14251" xmlns:xlink="http://www.w3.org/1999/xlink" width="400" height="400"><defs><style type="text/css"></style></defs><path d="M852.461647 95.385441l-100.8018 0L751.659847 77.576843c0-7.28901-5.91778-13.187347-13.225209-13.187347-7.28901 0-13.187347 5.898337-13.187347 13.187347L725.24729 95.385441 600.776418 95.385441 600.776418 77.576843c0-7.28901-5.89936-13.187347-13.187347-13.187347-7.308453 0-13.205766 5.898337-13.205766 13.187347L574.383304 95.385441 449.930851 95.385441 449.930851 77.576843c0-7.28901-5.89936-13.187347-13.187347-13.187347-7.325849 0-13.225209 5.898337-13.225209 13.187347L423.518295 95.385441l-124.434034 0L299.084261 77.576843c0-7.28901-5.898337-13.187347-13.205766-13.187347-7.28901 0-13.187347 5.898337-13.187347 13.187347L272.691147 95.385441l-99.468432 0c-18.222013 0-33.005718 14.765285-33.005718 33.024138l0 811.373345c0 18.222013 14.783705 32.986275 33.005718 32.986275l679.237909 0c18.222013 0 33.024138-14.765285 33.024138-32.986275L885.484761 128.409578C885.485785 110.150726 870.68366 95.385441 852.461647 95.385441zM738.434637 256.825296c7.30743 0 13.225209-5.936199 13.225209-13.224186l0-31.258934c12.173251 5.14723 20.719904 17.206894 20.719904 31.258934 0 18.784832-15.198144 33.963533-33.963533 33.963533-18.729573 0-33.945113-15.178701-33.945113-33.963533 0-14.089903 8.566096-26.149567 20.777209-31.295773l0 31.295773C725.24729 250.89012 731.145627 256.825296 738.434637 256.825296zM587.589071 256.825296c7.287987 0 13.187347-5.936199 13.187347-13.224186l0-31.258934c12.211113 5.14723 20.739347 17.206894 20.739347 31.258934 0 18.784832-15.178701 33.963533-33.945113 33.963533-18.74697 0-33.963533-15.178701-33.963533-33.963533 0-14.089903 8.566096-26.149567 20.777209-31.295773l0 31.295773C574.383304 250.89012 580.280618 256.825296 587.589071 256.825296zM436.743504 256.825296c7.287987 0 13.187347-5.936199 13.187347-13.224186l0-31.295773c12.19167 5.184069 20.739347 17.244756 20.739347 31.295773 0 18.784832-15.178701 33.963533-33.963533 33.963533-18.74697 0-33.963533-15.178701-33.963533-33.963533 0-14.089903 8.566096-26.149567 20.777209-31.295773l0 31.295773C423.518295 250.89012 429.417655 256.825296 436.743504 256.825296zM285.878494 256.825296c7.30743 0 13.205766-5.936199 13.205766-13.224186l0-31.258934c12.19167 5.14723 20.739347 17.206894 20.739347 31.258934 0 18.784832-15.19712 33.963533-33.963533 33.963533-18.747993 0-33.963533-15.178701-33.963533-33.963533 0-14.089903 8.566096-26.149567 20.795629-31.295773l0 31.295773C272.691147 250.89012 278.590508 256.825296 285.878494 256.825296zM819.436486 906.758786 206.247876 906.758786 206.247876 161.396877l66.443271 0 0 23.406083c-26.956955 6.048763-47.207162 30.05655-47.207162 58.798151 0 33.287127 27.088962 60.375066 60.376089 60.375066s60.375066-27.087938 60.375066-60.375066c0-28.723182-20.231787-52.749388-47.15088-58.798151l0-23.406083 124.434034 0 0 23.406083c-26.937512 6.048763-47.187719 30.05655-47.187719 58.798151 0 33.287127 27.106358 60.375066 60.375066 60.375066 33.30657 0 60.376089-27.087938 60.376089-60.375066 0-28.741601-20.213367-52.749388-47.15088-58.798151l0-23.406083 124.452453 0 0 23.406083c-26.956955 6.048763-47.188742 30.05655-47.188742 58.798151 0 33.287127 27.069519 60.375066 60.376089 60.375066 33.287127 0 60.356646-27.087938 60.356646-60.375066 0-28.723182-20.213367-52.749388-47.15088-58.798151l0-23.406083 124.471896 0 0 23.406083c-26.957978 6.048763-47.188742 30.05655-47.188742 58.798151 0 33.287127 27.069519 60.375066 60.356646 60.375066 33.30657 0 60.395532-27.087938 60.395532-60.375066 0-28.723182-20.25123-52.749388-47.15088-58.798151l0-23.406083 67.776639 0L819.437509 906.758786z" p-id="14252" fill="#000000"></path><path d="M740.500693 746.106876 402.741086 746.106876c-7.287987 0-13.187347 5.89936-13.187347 13.187347 0 7.28901 5.89936 13.205766 13.187347 13.205766l337.758584 0c7.269567 0 13.18837-5.916756 13.18837-13.205766C753.68804 752.005212 747.77026 746.106876 740.500693 746.106876z" p-id="14253" fill="#e6e6e6"></path><path d="M740.500693 584.77856 402.741086 584.77856c-7.287987 0-13.187347 5.936199-13.187347 13.225209 0 7.287987 5.89936 13.205766 13.187347 13.205766l337.758584 0c7.269567 0 13.18837-5.91778 13.18837-13.205766C753.68804 590.714759 747.77026 584.77856 740.500693 584.77856z" p-id="14254" fill="#e6e6e6"></path><path d="M740.500693 423.488107 402.741086 423.488107c-7.287987 0-13.187347 5.898337-13.187347 13.224186 0 7.28901 5.89936 13.225209 13.187347 13.225209l337.758584 0c7.269567 0 13.18837-5.936199 13.18837-13.225209C753.68804 429.387467 747.77026 423.488107 740.500693 423.488107z" p-id="14255" fill="#e6e6e6"></path><path d="M331.188446 394.784368l-57.46376 0c-7.28901 0-13.205766 5.936199-13.205766 13.187347l0 57.483202c0 7.28901 5.916756 13.187347 13.205766 13.187347l57.46376 0c7.28901 0 13.187347-5.898337 13.187347-13.187347l0-57.483202C344.375793 400.720567 338.477456 394.784368 331.188446 394.784368z" p-id="14256" fill="#e6e6e6"></path><path d="M331.188446 556.074821l-57.46376 0c-7.28901 0-13.205766 5.898337-13.205766 13.187347l0 57.483202c0 7.287987 5.916756 13.187347 13.205766 13.187347l57.46376 0c7.28901 0 13.187347-5.89936 13.187347-13.187347l0-57.483202C344.375793 561.973158 338.477456 556.074821 331.188446 556.074821z" p-id="14257" fill="#e6e6e6"></path><path d="M331.188446 717.365274l-57.46376 0c-7.28901 0-13.205766 5.89936-13.205766 13.187347l0 57.483202c0 7.28901 5.916756 13.18837 13.205766 13.18837l57.46376 0c7.28901 0 13.187347-5.89936 13.187347-13.18837L344.375793 730.551598C344.375793 723.263611 338.477456 717.365274 331.188446 717.365274z" p-id="14258" fill="#e6e6e6"></path></svg>
