<?xml version="1.0" standalone="no"?><!DOCTYPE svg PUBLIC "-//W3C//DTD SVG 1.1//EN" "http://www.w3.org/Graphics/SVG/1.1/DTD/svg11.dtd"><svg t="1595930456753" class="icon" viewBox="0 0 1024 1024" version="1.1" xmlns="http://www.w3.org/2000/svg" p-id="10032" xmlns:xlink="http://www.w3.org/1999/xlink" width="200" height="200"><defs><style type="text/css"></style></defs><path d="M853.333333 284.444444h-170.666666V113.777778H0v682.666666h113.777778a113.777778 113.777778 0 0 0 227.555555 0h341.333334a113.777778 113.777778 0 0 0 227.555555 0h113.777778v-170.666666zM227.555556 853.333333a56.888889 56.888889 0 1 1 56.888888-56.888889 56.888889 56.888889 0 0 1-56.888888 56.888889z m568.888888 0a56.888889 56.888889 0 1 1 56.888889-56.888889 56.888889 56.888889 0 0 1-56.888889 56.888889z m-113.777777-227.555555V398.222222h113.777777l113.777778 227.555556z" fill="#585858" p-id="10033"></path></svg>
